{
  "source": "C:\\Users\\Peter\\Desktop\\stuff\\MIUN\\quantitative_research\\video_compression\\videos\\BVI-HD\\BVI-HD_CDVL_videos\\ORIG\\BallUnderWater_1920x1080_60fps.mp4",
  "output": "C:\\Users\\Peter\\Desktop\\stuff\\MIUN\\quantitative_research\\video_compression\\compressed_videos\\BVI-HD\\av1\\4\\BallUnderWater_1920x1080_60fps_av1.mkv",
  "codec": "av1",
  "ok": "Input #0, mov,mp4,m4a,3gp,3g2,mj2, from 'C:\\Users\\Peter\\Desktop\\stuff\\MIUN\\quantitative_research\\video_compression\\videos\\BVI-HD\\BVI-HD_CDVL_videos\\ORIG\\BallUnderWater_1920x1080_60fps.mp4':\n  Metadata:\n    major_brand     : isom\n    minor_version   : 512\n    compatible_brands: isomiso2avc1mp41\n    encoder         : Lavf54.28.101\n  Duration: 00:00:05.00, start: 0.000000, bitrate: 212030 kb/s\n  Stream #0:0[0x1](und): Video: h264 (High 4:4:4 Predictive) (avc1 / 0x31637661), yuv420p(progressive), 1920x1080, 212025 kb/s, 60 fps, 60 tbr, 60 tbn (default)\n    Metadata:\n      handler_name    : VideoHandler\n      vendor_id       : [0][0][0][0]\n[out#0/matroska @ 0000025e5ed4a0c0] Codec AVOption b:a (set bitrate (in bits/s)) has not been used for any stream. The most likely reason is either wrong type (e.g. a video option with no video streams) or that it is a private option of some decoder which was not actually used for any stream.\nStream mapping:\n  Stream #0:0 -> #0:0 (h264 (native) -> av1 (libsvtav1))\nPress [q] to stop, [?] for help\nSvt[info]: -------------------------------------------\nSvt[info]: SVT [version]:\tSVT-AV1 Encoder Lib v3.1.0-19-g6ecfe8ec\nSvt[info]: SVT [build]  :\tGCC 15.2.0\t 64 bit\nSvt[info]: LIB Build date: Aug 17 2025 11:37:13\nSvt[info]: -------------------------------------------\nSvt[info]: Level of Parallelism: 5\nSvt[info]: Number of PPCS 93\nSvt[info]: [asm level on system : up to avx2]\nSvt[info]: [asm level selected : up to avx2]\nSvt[info]: -------------------------------------------\nSvt[info]: SVT [config]: main profile\ttier (auto)\tlevel (auto)\nSvt[info]: SVT [config]: width / height / fps numerator / fps denominator \t\t: 1920 / 1080 / 60 / 1\nSvt[info]: SVT [config]: bit-depth / color format \t\t\t\t\t: 8 / YUV420\nSvt[info]: SVT [config]: preset / tune / pred struct \t\t\t\t\t: 4 / PSNR / random access\nSvt[info]: SVT [config]: gop size / mini-gop size / key-frame type \t\t\t: 321 / 16 / key frame\nSvt[info]: SVT [config]: BRC mode / target bitrate (kbps)\t\t\t\t: VBR / 4000 \nSvt[info]: SVT [config]: AQ mode / Variance Boost \t\t\t\t\t: 2 / 0\nSvt[info]: SVT [config]: sharpness / luminance-based QP bias \t\t\t\t: 0 / 0\nSvt[info]: SVT [config]: QP scale compress strength \t\t\t\t\t: 0\nSvt[info]: -------------------------------------------\nOutput #0, matroska, to 'C:\\Users\\Peter\\Desktop\\stuff\\MIUN\\quantitative_research\\video_compression\\compressed_videos\\BVI-HD\\av1\\4\\BallUnderWater_1920x1080_60fps_av1.mkv':\n  Metadata:\n    major_brand     : isom\n    minor_version   : 512\n    compatible_brands: isomiso2avc1mp41\n    encoder         : Lavf62.3.100\n  Stream #0:0(und): Video: av1 (AV01 / 0x31305641), yuv420p(tv, progressive), 1920x1080, q=2-31, 4000 kb/s, 60 fps, 1k tbn (default)\n    Metadata:\n      encoder         : Lavc62.11.100 libsvtav1\n      handler_name    : VideoHandler\n      vendor_id       : [0][0][0][0]\n    Side data:\n      cpb: bitrate max/min/avg: 0/0/4000000 buffer size: 4000000 vbv_delay: N/A\nframe=    0 fps=0.0 q=0.0 size=       0KiB time=N/A bitrate=N/A speed=N/A elapsed=0:00:01.11    \nframe=    0 fps=0.0 q=0.0 size=       0KiB time=N/A bitrate=N/A speed=N/A elapsed=0:00:01.75    \nframe=    0 fps=0.0 q=0.0 size=       0KiB time=N/A bitrate=N/A speed=N/A elapsed=0:00:02.27    \nframe=    0 fps=0.0 q=0.0 size=       0KiB time=N/A bitrate=N/A speed=N/A elapsed=0:00:02.83    \nframe=    1 fps=0.3 q=14.0 size=       1KiB time=00:00:00.00 bitrate=N/A speed=   0x elapsed=0:00:03.39    \nframe=    1 fps=0.3 q=14.0 size=       1KiB time=00:00:00.00 bitrate=N/A speed=   0x elapsed=0:00:03.89    \nframe=    1 fps=0.2 q=14.0 size=       1KiB time=00:00:00.00 bitrate=N/A speed=   0x elapsed=0:00:04.42    \nframe=    4 fps=0.8 q=37.0 size=       1KiB time=00:00:00.05 bitrate= 113.9kbits/s speed=0.00988x elapsed=0:00:05.05    \nframe=    7 fps=1.2 q=32.0 size=       1KiB time=00:00:00.10 bitrate=  57.0kbits/s speed=0.0178x elapsed=0:00:05.61    \nframe=    9 fps=1.5 q=29.0 size=       1KiB time=00:00:00.13 bitrate=  42.7kbits/s speed=0.0218x elapsed=0:00:06.12    \nframe=   11 fps=1.6 q=32.0 size=       1KiB time=00:00:00.16 bitrate=  34.2kbits/s speed=0.0249x elapsed=0:00:06.69    \nframe=   14 fps=1.9 q=30.0 size=       1KiB time=00:00:00.20 bitrate=  28.5kbits/s speed=0.0276x elapsed=0:00:07.24    \nframe=   17 fps=2.2 q=20.0 size=       1KiB time=00:00:00.26 bitrate=  21.4kbits/s speed=0.0338x elapsed=0:00:07.89    \nframe=   20 fps=2.4 q=29.0 size=       1KiB time=00:00:00.31 bitrate=  18.0kbits/s speed=0.0376x elapsed=0:00:08.41    \nframe=   22 fps=2.4 q=28.0 size=       1KiB time=00:00:00.35 bitrate=  16.3kbits/s speed=0.0389x elapsed=0:00:08.99    \nframe=   25 fps=2.6 q=29.0 size=       1KiB time=00:00:00.40 bitrate=  14.2kbits/s speed=0.0418x elapsed=0:00:09.56    \nframe=   27 fps=2.7 q=32.0 size=       1KiB time=00:00:00.43 bitrate=  13.1kbits/s speed=0.0428x elapsed=0:00:10.13    \nframe=   32 fps=3.0 q=31.0 size=       1KiB time=00:00:00.51 bitrate=  11.0kbits/s speed=0.0484x elapsed=0:00:10.68    \nframe=   35 fps=3.1 q=32.0 size=       1KiB time=00:00:00.56 bitrate=  10.1kbits/s speed=0.0504x elapsed=0:00:11.23    \nframe=   38 fps=3.2 q=32.0 size=       1KiB time=00:00:00.61 bitrate=   9.2kbits/s speed=0.0519x elapsed=0:00:11.88    \nframe=   41 fps=3.3 q=26.0 size=       1KiB time=00:00:00.66 bitrate=   8.5kbits/s speed=0.0533x elapsed=0:00:12.49    \nframe=   43 fps=3.3 q=32.0 size=       1KiB time=00:00:00.70 bitrate=   8.1kbits/s speed=0.0534x elapsed=0:00:13.09    \nframe=   49 fps=3.6 q=18.0 size=       1KiB time=00:00:00.78 bitrate=   7.3kbits/s speed=0.0575x elapsed=0:00:13.63    \nframe=   51 fps=3.6 q=32.0 size=       1KiB time=00:00:00.83 bitrate=   6.8kbits/s speed=0.0588x elapsed=0:00:14.18    \nframe=   54 fps=3.7 q=31.0 size=       1KiB time=00:00:00.88 bitrate=   6.4kbits/s speed=0.0598x elapsed=0:00:14.78    \nframe=   56 fps=3.6 q=31.0 size=       1KiB time=00:00:00.91 bitrate=   6.2kbits/s speed=0.0596x elapsed=0:00:15.38    \nframe=   59 fps=3.7 q=32.0 size=       1KiB time=00:00:00.95 bitrate=   6.0kbits/s speed=0.0596x elapsed=0:00:15.93    \nframe=   63 fps=3.8 q=32.0 size=       1KiB time=00:00:01.03 bitrate=   5.5kbits/s speed=0.0623x elapsed=0:00:16.59    \nframe=   66 fps=3.9 q=32.0 size=       1KiB time=00:00:01.08 bitrate=   5.3kbits/s speed=0.0633x elapsed=0:00:17.10    \nframe=   69 fps=3.9 q=31.0 size=       1KiB time=00:00:01.13 bitrate=   5.0kbits/s speed=0.0642x elapsed=0:00:17.65    \nframe=   70 fps=3.8 q=31.0 size=       1KiB time=00:00:01.15 bitrate=   5.0kbits/s speed=0.0632x elapsed=0:00:18.21    \nframe=   74 fps=3.9 q=30.0 size=       1KiB time=00:00:01.21 bitrate=   4.7kbits/s speed=0.0649x elapsed=0:00:18.73    \nframe=   76 fps=3.9 q=30.0 size=       1KiB time=00:00:01.25 bitrate=   4.6kbits/s speed=0.0648x elapsed=0:00:19.28    \nframe=   80 fps=4.0 q=29.0 size=       1KiB time=00:00:01.31 bitrate=   4.3kbits/s speed=0.0663x elapsed=0:00:19.85    \nframe=   82 fps=4.0 q=26.0 size=       1KiB time=00:00:01.35 bitrate=   4.2kbits/s speed=0.0662x elapsed=0:00:20.38    \nframe=   85 fps=4.1 q=29.0 size=       1KiB time=00:00:01.40 bitrate=   4.1kbits/s speed=0.0669x elapsed=0:00:20.92    \nframe=   86 fps=4.0 q=27.0 size=       1KiB time=00:00:01.41 bitrate=   4.0kbits/s speed=0.0659x elapsed=0:00:21.49    \nframe=   89 fps=4.0 q=22.0 size=       1KiB time=00:00:01.46 bitrate=   3.9kbits/s speed=0.0663x elapsed=0:00:22.10    \nframe=   92 fps=4.1 q=30.0 size=       1KiB time=00:00:01.51 bitrate=   3.8kbits/s speed=0.0669x elapsed=0:00:22.65    \nframe=   97 fps=4.2 q=11.0 size=       1KiB time=00:00:01.60 bitrate=   3.6kbits/s speed=0.069x elapsed=0:00:23.17    \nframe=  100 fps=4.2 q=30.0 size=       1KiB time=00:00:01.65 bitrate=   3.5kbits/s speed=0.0696x elapsed=0:00:23.71    \nframe=  102 fps=4.2 q=29.0 size=       1KiB time=00:00:01.68 bitrate=   3.4kbits/s speed=0.0694x elapsed=0:00:24.26    \nframe=  105 fps=4.2 q=23.0 size=       1KiB time=00:00:01.71 bitrate=   3.3kbits/s speed=0.0691x elapsed=0:00:24.82    \nframe=  107 fps=4.2 q=31.0 size=       1KiB time=00:00:01.76 bitrate=   3.2kbits/s speed=0.0692x elapsed=0:00:25.51    \nframe=  112 fps=4.3 q=29.0 size=       1KiB time=00:00:01.85 bitrate=   3.1kbits/s speed=0.0707x elapsed=0:00:26.15    \nframe=  115 fps=4.3 q=31.0 size=       1KiB time=00:00:01.88 bitrate=   3.0kbits/s speed=0.0706x elapsed=0:00:26.67    \nframe=  117 fps=4.3 q=29.0 size=       1KiB time=00:00:01.93 bitrate=   2.9kbits/s speed=0.071x elapsed=0:00:27.24    \nframe=  118 fps=4.2 q=30.0 size=       1KiB time=00:00:01.95 bitrate=   2.9kbits/s speed=0.0702x elapsed=0:00:27.78    \nframe=  122 fps=4.3 q=29.0 size=       1KiB time=00:00:02.01 bitrate=   2.8kbits/s speed=0.071x elapsed=0:00:28.40    \nframe=  126 fps=4.3 q=27.0 size=       1KiB time=00:00:02.08 bitrate=   2.7kbits/s speed=0.0719x elapsed=0:00:28.99    \nframe=  130 fps=4.4 q=30.0 size=       1KiB time=00:00:02.15 bitrate=   2.6kbits/s speed=0.0727x elapsed=0:00:29.58    \nframe=  133 fps=4.4 q=29.0 size=       1KiB time=00:00:02.20 bitrate=   2.6kbits/s speed=0.0728x elapsed=0:00:30.20    \nframe=  135 fps=4.4 q=31.0 size=       1KiB time=00:00:02.21 bitrate=   2.6kbits/s speed=0.0719x elapsed=0:00:30.81    \nframe=  138 fps=4.4 q=31.0 size=       1KiB time=00:00:02.26 bitrate=   2.5kbits/s speed=0.072x elapsed=0:00:31.47    \nframe=  141 fps=4.4 q=28.0 size=       1KiB time=00:00:02.33 bitrate=   2.4kbits/s speed=0.0727x elapsed=0:00:32.09    \nframe=  144 fps=4.4 q=28.0 size=       1KiB time=00:00:02.38 bitrate=   2.4kbits/s speed=0.073x elapsed=0:00:32.64    \nframe=  147 fps=4.4 q=31.0 size=       1KiB time=00:00:02.43 bitrate=   2.3kbits/s speed=0.0733x elapsed=0:00:33.18    \nframe=  149 fps=4.4 q=29.0 size=       1KiB time=00:00:02.46 bitrate=   2.3kbits/s speed=0.0731x elapsed=0:00:33.75    \nframe=  151 fps=4.4 q=31.0 size=       1KiB time=00:00:02.50 bitrate=   2.3kbits/s speed=0.0728x elapsed=0:00:34.35    \nframe=  154 fps=4.4 q=28.0 size=       1KiB time=00:00:02.55 bitrate=   2.2kbits/s speed=0.073x elapsed=0:00:34.94    \nframe=  159 fps=4.5 q=31.0 size=       1KiB time=00:00:02.61 bitrate=   2.2kbits/s speed=0.0734x elapsed=0:00:35.65    \nframe=  162 fps=4.5 q=31.0 size=       1KiB time=00:00:02.68 bitrate=   2.1kbits/s speed=0.0739x elapsed=0:00:36.32    \nframe=  165 fps=4.5 q=30.0 size=       1KiB time=00:00:02.73 bitrate=   2.1kbits/s speed=0.074x elapsed=0:00:36.94    \nframe=  167 fps=4.5 q=32.0 size=       1KiB time=00:00:02.76 bitrate=   2.1kbits/s speed=0.0737x elapsed=0:00:37.52    \nframe=  171 fps=4.5 q=32.0 size=       1KiB time=00:00:02.81 bitrate=   2.0kbits/s speed=0.0738x elapsed=0:00:38.18    \nframe=  175 fps=4.5 q=31.0 size=       1KiB time=00:00:02.90 bitrate=   2.0kbits/s speed=0.0746x elapsed=0:00:38.87    \nframe=  178 fps=4.5 q=29.0 size=       1KiB time=00:00:02.95 bitrate=   1.9kbits/s speed=0.0747x elapsed=0:00:39.47    \nframe=  181 fps=4.5 q=30.0 size=       1KiB time=00:00:03.00 bitrate=   1.9kbits/s speed=0.0749x elapsed=0:00:40.07    \nframe=  183 fps=4.5 q=31.0 size=       1KiB time=00:00:03.03 bitrate=   1.9kbits/s speed=0.0747x elapsed=0:00:40.60    \nframe=  186 fps=4.5 q=28.0 size=       1KiB time=00:00:03.08 bitrate=   1.8kbits/s speed=0.0748x elapsed=0:00:41.20    \nframe=  191 fps=4.6 q=30.0 size=       1KiB time=00:00:03.16 bitrate=   1.8kbits/s speed=0.0759x elapsed=0:00:41.74    \nframe=  194 fps=4.6 q=27.0 size=       1KiB time=00:00:03.21 bitrate=   1.8kbits/s speed=0.0761x elapsed=0:00:42.25    \nframe=  197 fps=4.6 q=30.0 size=       1KiB time=00:00:03.26 bitrate=   1.7kbits/s speed=0.0763x elapsed=0:00:42.80    \nframe=  200 fps=4.6 q=28.0 size=       1KiB time=00:00:03.30 bitrate=   1.7kbits/s speed=0.0762x elapsed=0:00:43.32    \nframe=  205 fps=4.7 q=29.0 size=       1KiB time=00:00:03.40 bitrate=   1.7kbits/s speed=0.0775x elapsed=0:00:43.87    \nframe=  211 fps=4.8 q=31.0 size=       1KiB time=00:00:03.50 bitrate=   1.6kbits/s speed=0.0788x elapsed=0:00:44.41    \nframe=  217 fps=4.8 q=21.0 size=       1KiB time=00:00:03.60 bitrate=   1.6kbits/s speed=0.0801x elapsed=0:00:44.93    \nframe=  219 fps=4.8 q=32.0 size=       1KiB time=00:00:03.63 bitrate=   1.6kbits/s speed=0.0799x elapsed=0:00:45.45    \nframe=  225 fps=4.9 q=16.0 size=       1KiB time=00:00:03.73 bitrate=   1.5kbits/s speed=0.0812x elapsed=0:00:45.97    \nframe=  231 fps=5.0 q=32.0 size=       1KiB time=00:00:03.83 bitrate=   1.5kbits/s speed=0.0825x elapsed=0:00:46.49    \nframe=  233 fps=5.0 q=22.0 size=       1KiB time=00:00:03.86 bitrate=   1.5kbits/s speed=0.0823x elapsed=0:00:47.00    \nframe=  239 fps=5.0 q=31.0 size=       1KiB time=00:00:03.96 bitrate=   1.4kbits/s speed=0.0835x elapsed=0:00:47.52    \nframe=  245 fps=5.1 q=30.0 size=       1KiB time=00:00:04.06 bitrate=   1.4kbits/s speed=0.0846x elapsed=0:00:48.04    \nframe=  249 fps=5.1 q=25.0 size=       1KiB time=00:00:04.13 bitrate=   1.4kbits/s speed=0.0851x elapsed=0:00:48.55    \nframe=  253 fps=5.2 q=29.0 size=       1KiB time=00:00:04.20 bitrate=   1.4kbits/s speed=0.0856x elapsed=0:00:49.07    \nframe=  257 fps=5.2 q=18.0 size=       1KiB time=00:00:04.26 bitrate=   1.3kbits/s speed=0.0861x elapsed=0:00:49.58    \nframe=  261 fps=5.2 q=30.0 size=       1KiB time=00:00:04.33 bitrate=   1.3kbits/s speed=0.0865x elapsed=0:00:50.10    \nframe=  265 fps=5.2 q=27.0 size=       1KiB time=00:00:04.40 bitrate=   1.3kbits/s speed=0.0869x elapsed=0:00:50.63    \nframe=  269 fps=5.3 q=29.0 size=       1KiB time=00:00:04.46 bitrate=   1.3kbits/s speed=0.0873x elapsed=0:00:51.16    \nframe=  273 fps=5.3 q=22.0 size=       1KiB time=00:00:04.53 bitrate=   1.3kbits/s speed=0.0877x elapsed=0:00:51.70    \nframe=  277 fps=5.3 q=30.0 size=       1KiB time=00:00:04.60 bitrate=   1.2kbits/s speed=0.0881x elapsed=0:00:52.23    \nframe=  281 fps=5.3 q=29.0 size=       1KiB time=00:00:04.66 bitrate=   1.2kbits/s speed=0.0884x elapsed=0:00:52.76    \nframe=  293 fps=5.5 q=29.0 size=       1KiB time=00:00:04.86 bitrate=   1.2kbits/s speed=0.0913x elapsed=0:00:53.29    \n[out#0/matroska @ 0000025e5ed4a0c0] video:2417KiB audio:0KiB subtitle:0KiB other streams:0KiB global headers:0KiB muxing overhead: 0.086966%\nframe=  300 fps=5.6 q=35.0 Lsize=    2419KiB time=00:00:04.98 bitrate=3976.0kbits/s speed=0.0932x elapsed=0:00:53.47    \n",
  "seconds": 53.975993156433105,
  "probe_out": {}
}